<?xml version="1.0" standalone="no"?>
<svg xmlns:xlink="http://www.w3.org/1999/xlink" id="wave" style="transform:rotate(180deg); transition: 0.3s" viewBox="0 0 1440 450" version="1.1" xmlns="http://www.w3.org/2000/svg"><defs><linearGradient id="sw-gradient-0" x1="0" x2="0" y1="1" y2="0"><stop stop-color="rgba(62, 144.9, 243, 1)" offset="0%"/><stop stop-color="rgba(100.409, 131.633, 241.766, 1)" offset="100%"/></linearGradient></defs><path style="transform:translate(0, 0px); opacity:1" fill="url(#sw-gradient-0)" d="M0,360L21.8,322.5C43.6,285,87,210,131,195C174.5,180,218,225,262,270C305.5,315,349,360,393,367.5C436.4,375,480,345,524,315C567.3,285,611,255,655,247.5C698.2,240,742,255,785,270C829.1,285,873,300,916,322.5C960,345,1004,375,1047,382.5C1090.9,390,1135,375,1178,345C1221.8,315,1265,270,1309,240C1352.7,210,1396,195,1440,165C1483.6,135,1527,90,1571,67.5C1614.5,45,1658,45,1702,82.5C1745.5,120,1789,195,1833,187.5C1876.4,180,1920,90,1964,75C2007.3,60,2051,120,2095,150C2138.2,180,2182,180,2225,210C2269.1,240,2313,300,2356,277.5C2400,255,2444,150,2487,142.5C2530.9,135,2575,225,2618,247.5C2661.8,270,2705,225,2749,225C2792.7,225,2836,270,2880,300C2923.6,330,2967,345,3011,315C3054.5,285,3098,210,3120,172.5L3141.8,135L3141.8,450L3120,450C3098.2,450,3055,450,3011,450C2967.3,450,2924,450,2880,450C2836.4,450,2793,450,2749,450C2705.5,450,2662,450,2618,450C2574.5,450,2531,450,2487,450C2443.6,450,2400,450,2356,450C2312.7,450,2269,450,2225,450C2181.8,450,2138,450,2095,450C2050.9,450,2007,450,1964,450C1920,450,1876,450,1833,450C1789.1,450,1745,450,1702,450C1658.2,450,1615,450,1571,450C1527.3,450,1484,450,1440,450C1396.4,450,1353,450,1309,450C1265.5,450,1222,450,1178,450C1134.5,450,1091,450,1047,450C1003.6,450,960,450,916,450C872.7,450,829,450,785,450C741.8,450,698,450,655,450C610.9,450,567,450,524,450C480,450,436,450,393,450C349.1,450,305,450,262,450C218.2,450,175,450,131,450C87.3,450,44,450,22,450L0,450Z"/></svg>