<?xml version="1.0" standalone="no"?>
<svg xmlns:xlink="http://www.w3.org/1999/xlink" id="wave" style="transform:rotate(0deg); transition: 0.3s" viewBox="0 0 1440 460" version="1.1" xmlns="http://www.w3.org/2000/svg"><defs><linearGradient id="sw-gradient-0" x1="0" x2="0" y1="1" y2="0"><stop stop-color="rgba(62, 144.9, 243, 1)" offset="0%"/><stop stop-color="rgba(100.409, 131.633, 241.766, 1)" offset="100%"/></linearGradient></defs><path style="transform:translate(0, 0px); opacity:1" fill="url(#sw-gradient-0)" d="M0,276L26.7,276C53.3,276,107,276,160,253C213.3,230,267,184,320,168.7C373.3,153,427,169,480,199.3C533.3,230,587,276,640,276C693.3,276,747,230,800,237.7C853.3,245,907,307,960,299C1013.3,291,1067,215,1120,184C1173.3,153,1227,169,1280,199.3C1333.3,230,1387,276,1440,260.7C1493.3,245,1547,169,1600,168.7C1653.3,169,1707,245,1760,291.3C1813.3,337,1867,353,1920,329.7C1973.3,307,2027,245,2080,245.3C2133.3,245,2187,307,2240,291.3C2293.3,276,2347,184,2400,145.7C2453.3,107,2507,123,2560,107.3C2613.3,92,2667,46,2720,76.7C2773.3,107,2827,215,2880,237.7C2933.3,261,2987,199,3040,207C3093.3,215,3147,291,3200,276C3253.3,261,3307,153,3360,107.3C3413.3,61,3467,77,3520,84.3C3573.3,92,3627,92,3680,130.3C3733.3,169,3787,245,3813,283.7L3840,322L3840,460L3813.3,460C3786.7,460,3733,460,3680,460C3626.7,460,3573,460,3520,460C3466.7,460,3413,460,3360,460C3306.7,460,3253,460,3200,460C3146.7,460,3093,460,3040,460C2986.7,460,2933,460,2880,460C2826.7,460,2773,460,2720,460C2666.7,460,2613,460,2560,460C2506.7,460,2453,460,2400,460C2346.7,460,2293,460,2240,460C2186.7,460,2133,460,2080,460C2026.7,460,1973,460,1920,460C1866.7,460,1813,460,1760,460C1706.7,460,1653,460,1600,460C1546.7,460,1493,460,1440,460C1386.7,460,1333,460,1280,460C1226.7,460,1173,460,1120,460C1066.7,460,1013,460,960,460C906.7,460,853,460,800,460C746.7,460,693,460,640,460C586.7,460,533,460,480,460C426.7,460,373,460,320,460C266.7,460,213,460,160,460C106.7,460,53,460,27,460L0,460Z"/></svg>